<svg height="40" viewBox="0 0 190 40" width="190" xmlns="http://www.w3.org/2000/svg"><path d="m0 0v40h40v-40zm19.8 36.9c-9.3 0-16.9-7.6-16.9-16.9s7.5-17 16.9-17 16.9 7.6 16.9 16.9-7.6 16.9-16.9 16.9z"/><path d="m53.2 20.3c0 2.4.4 4.1 1.3 5.3.9 1.1 2.1 1.7 3.9 1.7s2.6-.4 3.5-1.1c.8-.7 1.3-1.9 1.5-3.6h5.1c-.3 3.1-1.2 5.4-2.9 6.8-1.7 1.5-4.1 2.2-7.1 2.2s-6-.9-7.8-2.8-2.6-4.7-2.6-8.5.8-6.6 2.5-8.5 4.1-2.8 7.4-2.8 5.2.7 6.7 2.2c1.6 1.5 2.5 3.7 2.8 6.8h-5.1c-.2-1.6-.7-2.8-1.4-3.6s-1.7-1.1-3.1-1.1-2.7.6-3.6 1.7c-.8 1.1-1.2 2.9-1.2 5.3z"/><path d="m70.7 31.1v-21.6h15v4.2h-10.2v4.5h9.3v4.3h-9.3v4.5h10.2v4.2h-15z"/><path d="m98.3 31.1-4.4-21.2h-.6v21.2h-4.9v-21.6h9.9l4.4 21.2h.6v-21.2h4.9v21.6z"/><path d="m117 31.1v-17.3h-6.8v-4.3h18.4v4.3h-6.7v17.3z"/><path d="m130.8 9.5h9.3c1.5 0 2.7.1 3.7.3s1.8.6 2.4 1c.6.5 1.1 1.1 1.4 1.8s.4 1.6.4 2.7-.1 1.7-.4 2.3-.7 1.1-1.2 1.5-1.3.7-2.1.8c-.9.2-2 .2-3.2.2v.6h1.2c1.1 0 2 .3 2.9.8.8.5 1.4 1.4 1.8 2.7l2 6.8h-5.5l-1.1-7.5c0-.4-.2-.7-.3-.8-.1 0-.4-.1-.8-.1h-5.5v8.4h-4.9v-21.5zm4.8 9h4.4 1.3c.4 0 .7-.2 1-.3.2-.2.4-.4.6-.7.1-.3.2-.7.2-1.2s0-.9-.2-1.2c-.1-.3-.3-.5-.6-.7-.2-.2-.6-.3-1-.3s-.8 0-1.3 0h-4.4v4.7z"/><path d="m150.2 31.1 5.7-21.6h9.5l5.7 21.6h-5l-1.7-6.9h-7.5l-1.7 6.9zm7.7-11.2h5.5l-2.4-9.9h-.6l-2.4 9.9z"/><path d="m173.1 31.1v-21.6h4.9v17.3h9.6v4.3z"/></svg>