<?xml version="1.0" encoding="UTF-8"?><svg id="Layer_1" xmlns="http://www.w3.org/2000/svg" width="190" height="40" viewBox="0 0 190 40"><defs><style>.cls-1{fill:#fff;}</style></defs><path class="cls-1" d="M0,0v40h40V0H0ZM19.8,36.9c-9.3,0-16.9-7.6-16.9-16.9S10.4,3,19.8,3s16.9,7.6,16.9,16.9-7.6,16.9-16.9,16.9Z"/><path class="cls-1" d="M53.2,20.3c0,2.4.4,4.1,1.3,5.3.9,1.1,2.1,1.7,3.9,1.7s2.6-.4,3.5-1.1c.8-.7,1.3-1.9,1.5-3.6h5.1c-.3,3.1-1.2,5.4-2.9,6.8-1.7,1.5-4.1,2.2-7.1,2.2s-6-.9-7.8-2.8-2.6-4.7-2.6-8.5.8-6.6,2.5-8.5c1.7-1.9,4.1-2.8,7.4-2.8s5.2.7,6.7,2.2c1.6,1.5,2.5,3.7,2.8,6.8h-5.1c-.2-1.6-.7-2.8-1.4-3.6s-1.7-1.1-3.1-1.1-2.7.6-3.6,1.7c-.8,1.1-1.2,2.9-1.2,5.3Z"/><path class="cls-1" d="M70.7,31.1V9.5h15v4.2h-10.2v4.5h9.3v4.3h-9.3v4.5h10.2v4.2h-15Z"/><path class="cls-1" d="M98.3,31.1l-4.4-21.2h-.6v21.2h-4.9V9.5h9.9l4.4,21.2h.6V9.5h4.9v21.6h-9.9Z"/><path class="cls-1" d="M117,31.1V13.8h-6.8v-4.3h18.4v4.3h-6.7v17.3h-4.9Z"/><path class="cls-1" d="M130.8,9.5h9.3c1.5,0,2.7.1,3.7.3,1,.2,1.8.6,2.4,1,.6.5,1.1,1.1,1.4,1.8.3.7.4,1.6.4,2.7s-.1,1.7-.4,2.3c-.3.6-.7,1.1-1.2,1.5-.5.4-1.3.7-2.1.8-.9.2-2,.2-3.2.2v.6h1.2c1.1,0,2,.3,2.9.8.8.5,1.4,1.4,1.8,2.7l2,6.8h-5.5l-1.1-7.5c0-.4-.2-.7-.3-.8-.1,0-.4-.1-.8-.1h-5.5v8.4h-4.9V9.5ZM135.6,18.5h4.4c.5,0,.9,0,1.3,0,.4,0,.7-.2,1-.3.2-.2.4-.4.6-.7.1-.3.2-.7.2-1.2s0-.9-.2-1.2c-.1-.3-.3-.5-.6-.7-.2-.2-.6-.3-1-.3-.4,0-.8,0-1.3,0h-4.4v4.7Z"/><path class="cls-1" d="M150.2,31.1l5.7-21.6h9.5l5.7,21.6h-5l-1.7-6.9h-7.5l-1.7,6.9h-5ZM157.9,19.9h5.5l-2.4-9.9h-.6l-2.4,9.9Z"/><path class="cls-1" d="M173.1,31.1V9.5h4.9v17.3h9.6v4.3h-14.5Z"/></svg>