<?xml version="1.0" encoding="UTF-8"?><svg id="Layer_1" xmlns="http://www.w3.org/2000/svg" width="60" height="60" viewBox="0 0 60 60"><path d="M53.7,3.7h-10c-.6,0-1.2.3-1.5.7-.4.5-.5,1.1-.4,1.6l1.3,6.9h-11.3s0,0,0,0h-13.3s0,0,0,0H5c-.6,0-1.2.3-1.5.7s-.5,1.1-.4,1.7l5,25c.2.9,1,1.6,2,1.6h40c.6,0,1.2-.3,1.5-.7.4-.5.5-1.1.4-1.6l-5.9-31.9h7.6c1.1,0,2-.9,2-2s-.9-2-2-2ZM25,38l-4.2-21h9.3l4.2,21h-9.3ZM7.4,17h9.3l4.2,21h-9.3l-4.2-21ZM47.6,38h-9.3l-4.2-21h9.6l3.9,21Z"/><path d="M20.1,43.3c-3.3,0-6,2.7-6,6s2.7,6,6,6,6-2.7,6-6-2.7-6-6-6ZM20.1,51.2c-1.1,0-2-.9-2-2s.9-2,2-2,2,.9,2,2-.9,2-2,2Z"/><path d="M42.1,43.3c-3.3,0-6,2.7-6,6s2.7,6,6,6,6-2.7,6-6-2.7-6-6-6ZM42.1,51.2c-1.1,0-2-.9-2-2s.9-2,2-2,2,.9,2,2-.9,2-2,2Z"/></svg>